# AST/ASF file generated using VICON BodyLanguage
# -----------------------------------------------
:version 1.10
:name VICON
:units
  mass 1.0
  length 0.45
  angle deg
:documentation
   .ast/.asf automatically generated from VICON data using
   VICON BodyBuilder and BodyLanguage model FoxedUp or BRILLIANT.MOD
:root
   order TX TY TZ RX RY RZ
   axis XYZ
   position 0 0 0  
   orientation 0 0 0 
:bonedata
  begin
     id 1 
     name lhipjoint
     direction 0.661853 -0.702389 0.261917 
     length 2.64193 
     axis 0 0 0  XYZ
  end
  begin
     id 2 
     name lfemur
     direction 0.34202 -0.939693 0  
     length 7.01722  
     axis 0 0 20  XYZ
    dof rx ry rz
    limits (-160.0 20.0)
           (-70.0 70.0)
           (-60.0 70.0)
  end
  begin
     id 3 
     name ltibia
     direction 0.34202 -0.939693 0   
     length 8.25008   
     axis 0 0 20   XYZ
    dof rx
    limits (-10.0 170.0)
  end
  begin
     id 4 
     name lfoot
     direction 0.0709916 -0.195048 0.978221   
     length 2.31941   
     axis -90 7.62852e-016 20   XYZ
    dof rx rz
    limits (-45.0 90.0)
           (-70.0 20.0)
  end
  begin
     id 5 
     name ltoes
     direction 1.53586e-011 -4.22017e-011 1   
     length 1.16486   
     axis -90 7.62852e-016 20   XYZ
    dof rx
    limits (-90.0 20.0)
  end
  begin
     id 6 
     name rhipjoint
     direction -0.638185 -0.721362 0.268992   
     length 2.57244  
     axis 0 0 0  XYZ 
  end
  begin
     id 7 
     name rfemur
     direction -0.34202 -0.939693 0   
     length 7.07017   
     axis 0 0 -20   XYZ
    dof rx ry rz
    limits (-160.0 20.0)
           (-70.0 70.0)
           (-70.0 60.0)
  end
  begin
     id 8 
     name rtibia
     direction -0.34202 -0.939693 0   
     length 8.20386   
     axis 0 0 -20   XYZ
    dof rx
    limits (-10.0 170.0)
 end
 begin
     id 9 
     name rfoot
     direction -0.0822429 -0.225961 0.970658   
     length 2.32215  
     axis -90 -7.62852e-016 -20   XYZ
    dof rx rz
    limits (-45.0 90.0)
           (-20.0 70.0)
  end
  begin
     id 10 
     name rtoes
     direction -1.53597e-011 -4.21689e-011 1   
     length 1.16333   
     axis -90 -7.62852e-016 -20   XYZ
    dof rx
    limits (-90.0 20.0)
  end
  begin
     id 11 
     name lowerback
     direction -0.0131557 0.998589 -0.0514484   
     length 2.14993   
     axis 0 0 0   XYZ
    dof rx ry rz
    limits (-20.0 45.0)
           (-30.0 30.0)
           (-30.0 30.0)
  end
  begin
     id 12 
     name upperback
     direction -0.000776481 0.999993 0.00352685   
     length 2.15301   
     axis 0 0 0   XYZ
    dof rx ry rz
    limits (-20.0 45.0)
           (-30.0 30.0)
           (-30.0 30.0)
  end
  begin
     id 13 
     name thorax
     direction 0.00438186 0.999609 0.0276143   
     length 2.15424   
     axis 0 0 0   XYZ
    dof rx ry rz
    limits (-20.0 45.0)
           (-30.0 30.0)
           (-30.0 30.0)
  end
  begin
     id 14 
     name lowerneck
     direction -0.0488006 0.998094 0.0377807   
     length 1.90481   
     axis 0 0 0   XYZ
    dof rx ry rz
    limits (-20.0 45.0)
           (-30.0 30.0)
           (-30.0 30.0)
  end
  begin
     id 15 
     name upperneck
     direction 0.0443769 0.990702 -0.12861   
     length 1.91305   
     axis 0 0 0   XYZ
    dof rx ry rz
    limits (-20.0 45.0)
           (-30.0 30.0)
           (-30.0 30.0)
  end
  begin
     id 16
     name head
     direction 0.0165599 0.998647 -0.0492982  
     length 1.92369  
     axis 0 0 0   XYZ
    dof rx ry rz
    limits (-20.0 45.0)
           (-30.0 30.0)
           (-30.0 30.0)
  end
  begin
     id 17 
     name lclavicle
     direction 0.911936 0.410197 -0.0105506  
     length 3.52622  
     axis 0 0 0   XYZ
    dof ry rz
    limits (-20.0 10.0)
           (0.0 20.0)
  end
  begin
     id 18 
     name lhumerus
     direction 1 -4.48974e-011 -2.48591e-028   
     length 5.47651   
     axis 180 -30 -90   XYZ
    dof rx ry rz
    limits (-60.0 90.0)
           (-90.0 90.0)
           (-90.0 90.0)
  end
  begin
     id 19
     name lradius
     direction 1 -4.48938e-011 -4.40099e-027   
     length 3.09058   
     axis 180 -30 -90   XYZ
    dof rx
    limits (-10.0 170.0)
  end
  begin
     id 20
     name lwrist
     direction 1 -4.49042e-011 -2.99852e-027   
     length 1.54529   
     axis 1.95339e-015 90 90   XYZ
    dof ry
    limits (-180.0 0.0)
 end
  begin
     id 21 
     name lhand
     direction 1 -4.48815e-011 -5.98193e-027   
     length 0.771611   
     axis 3.82337e-015 90 90   XYZ
    dof rx rz
    limits (-90.0 90.0)
           (-45.0 45.0)
  end
  begin
     id 22 
     name lfingers
     direction 1 -4.49034e-011 -1.1993e-026   
     length 0.622093   
     axis 7.64668e-015 90 90   XYZ
    dof rx
    limits (0.0 90.0)
  end
  begin
     id 23
     name lthumb
     direction 0.707107 -6.34867e-011 0.707107   
     length 0.893204   
     axis -90 45 -1.62303e-014   XYZ
    dof rx rz
    limits (-45.0 45.0)
           (-45.0 45.0)
  end
  begin
     id 24 
     name rclavicle
     direction -0.93442 0.355634 -0.0195692   
     length 3.62463  
     axis 0 0 0   XYZ 
    dof ry rz
    limits (-10.0 20.0)
           (-20.0 0.0)
  end
  begin
     id 25 
     name rhumerus
     direction -1 -4.48957e-011 -1.19147e-027  
     length 5.14182   
     axis 180 30 90   XYZ
    dof rx ry rz
    limits (-90.0 60.0)
           (-90.0 90.0)
           (-90.0 90.0)
  end
  begin
     id 26 
     name rradius
     direction -1 -4.48952e-011 -3.81062e-027   
     length 3.35565   
     axis 180 30 90   XYZ
    dof rx
    limits (-10.0 170.0)
  end
  begin
     id 27 
     name rwrist
     direction -1 -4.48973e-011 -2.99621e-027   
     length 1.67782   
     axis 1.95339e-015 -90 -90   XYZ
    dof ry
    limits (-180.0 0.0)
  end
  begin
     id 28
     name rhand
     direction -1 -4.48895e-011 -5.98727e-027   
     length 0.801042   
     axis 3.82337e-015 -90 -90   XYZ
    dof rx rz
    limits (-90.0 90.0)
           (-45.0 45.0)
  end
  begin
     id 29
     name rfingers
     direction -1 -4.49065e-011 -1.19972e-026   
     length 0.645821   
     axis 7.64668e-015 -90 -90   XYZ
    dof rx
    limits (0.0 90.0)
  end
  begin
     id 30
     name rthumb
     direction -0.707107 -6.34957e-011 0.707107   
     length 0.927273   
     axis -90 -45 1.62303e-014   XYZ
    dof rx rz
    limits (-45.0 45.0)
           (-45.0 45.0)
  end
:hierarchy
  begin
    root lhipjoint rhipjoint lowerback
    lhipjoint lfemur
    lfemur ltibia
    ltibia lfoot
    lfoot ltoes
    rhipjoint rfemur
    rfemur rtibia
    rtibia rfoot
    rfoot rtoes
    lowerback upperback
    upperback thorax
    thorax lowerneck lclavicle rclavicle
    lowerneck upperneck
    upperneck head
    lclavicle lhumerus
    lhumerus lradius
    lradius lwrist
    lwrist lhand lthumb
    lhand lfingers
    rclavicle rhumerus
    rhumerus rradius
    rradius rwrist
    rwrist rhand rthumb
    rhand rfingers
  end

#!OML:ASF E:\Style4\Style4.ASF
:FULLY-SPECIFIED
:DEGREES
665
root -0.246309 18.1969 0.137815 7.8511 -0.425488 0.754348
lowerback 10.6992 2.29408 -0.217884
upperback 1.05591 3.01023 -0.125691
thorax -4.89616 1.48615 -0.451437
lowerneck -6.80021 -4.10773 -3.99561
upperneck 1.6712 -5.29048 3.9888
head 1.937 -2.57497 1.75771
rclavicle -2.32578e-014 6.16232e-015
rhumerus -42.3083 17.4023 -96.9296
rradius 47.1454
rwrist -20.2283
rhand 5.83462 -6.58734
rfingers 7.12502
rthumb 31.1657 -33.9571
lclavicle -2.32578e-014 6.16232e-015
lhumerus -46.6507 -21.2738 96.7655
lradius 57.2295
lwrist 19.8638
lhand 7.25611 47.1883
lfingers 7.12502
lthumb 32.5194 74.2886
rfemur -10.587 8.25148 19.4714
rtibia 18.0952
rfoot -14.9238 -14.5959
rtoes -11.4659
lfemur -9.96706 -8.28154 -18.1714
ltibia 17.3959
lfoot -15.8162 12.303
ltoes -15.8401
666
root -0.248147 18.1964 0.120821 7.86497 -0.438499 0.710279
lowerback 10.7896 2.3126 -0.151531
upperback 1.12359 3.04027 -0.157751
thorax -4.87029 1.4993 -0.528471
lowerneck -6.41433 -4.14711 -3.86184
upperneck 1.17543 -5.35713 4.05107
head 1.706 -2.61103 1.75981
rclavicle -5.2181e-015 4.96962e-015
rhumerus -42.4331 17.3007 -96.9818
rradius 47.3497
rwrist -20.2442
rhand 5.72318 -6.2999
rfingers 7.12502
rthumb 31.0595 -33.69
lclavicle -5.2181e-015 4.96962e-015
lhumerus -46.7316 -21.3258 96.6514
lradius 57.5643
lwrist 19.9132
lhand 7.13209 47.0221
lfingers 7.12502
lthumb 32.4014 74.1467
rfemur -10.7525 8.36655 19.4972
rtibia 18.1828
rfoot -15.0087 -14.6452
rtoes -11.0517
lfemur -10.1164 -8.26286 -18.1044
ltibia 17.4941
lfoot -15.7576 12.3959
ltoes -16.4866
667
root -0.247752 18.196 0.105735 7.83921 -0.46138 0.743926
lowerback 10.897 2.30618 -0.173297
upperback 1.22287 3.02799 -0.164072
thorax -4.82693 1.49364 -0.523032
lowerneck -6.09956 -4.16564 -3.80054
upperneck 0.708308 -5.38465 4.03036
head 1.49671 -2.62938 1.74878
rclavicle -2.0276e-014 4.77083e-015
rhumerus -42.2534 17.459 -96.9566
rradius 47.3191
rwrist -20.4735
rhand 5.70825 -6.22003
rfingers 7.12502
rthumb 31.0453 -33.6129
lclavicle -2.0276e-014 4.77083e-015
lhumerus -46.6381 -21.2021 96.5518
lradius 57.6365
lwrist 19.9683
lhand 6.97661 46.6031
lfingers 7.12502
lthumb 32.2534 73.7579
rfemur -10.821 8.35415 19.4553
rtibia 18.2331
rfoot -14.9462 -14.6437
rtoes -11.3667
lfemur -10.1903 -8.26215 -18.14
ltibia 17.5768
lfoot -15.8254 12.4197
ltoes -16.3787
668
root -0.246754 18.1961 0.093467 7.79277 -0.506756 0.787155
lowerback 11.043 2.30382 -0.195959
upperback 1.31702 3.02091 -0.167004
thorax -4.81054 1.49038 -0.516184
lowerneck -5.87718 -4.19412 -3.86385
upperneck 0.369934 -5.4193 4.10953
head 1.35514 -2.64872 1.79004
rclavicle 1.02374e-014 -3.97569e-015
rhumerus -42.0327 17.6176 -96.9225
rradius 47.225
rwrist -20.694
rhand 5.70128 -6.25009
rfingers 7.12502
rthumb 31.0386 -33.6442
lclavicle 1.02374e-014 -3.97569e-015
lhumerus -46.5033 -21.0426 96.4671
lradius 57.6541
lwrist 19.9917
lhand 6.95334 46.3846
lfingers 7.12502
lthumb 32.2313 73.5439
rfemur -10.8399 8.3412 19.398
rtibia 18.2627
rfoot -14.9144 -14.5837
rtoes -11.2324
lfemur -10.2095 -8.2681 -18.2003
ltibia 17.6516
lfoot -15.9171 12.4267
ltoes -15.9265
